<?xml version="1.0" encoding="UTF-8"?>
<svg xmlns="http://www.w3.org/2000/svg" xmlns:xlink="http://www.w3.org/1999/xlink" width="48px" height="48px" viewBox="0 0 48 48" version="1.1">
<g id="surface1">
<path style=" stroke:none;fill-rule:nonzero;fill:rgb(56.470588%,56.470588%,56.470588%);fill-opacity:1;" d="M 36.148438 3.109375 L 44.496094 11.808594 L 44.496094 44.890625 L 13.320312 44.890625 L 13.320312 45 L 44.601562 45 L 44.601562 11.917969 L 36.148438 3.109375 "/>
<path style=" stroke:none;fill-rule:nonzero;fill:rgb(95.686275%,95.686275%,95.686275%);fill-opacity:1;" d="M 36.046875 3 L 13.210938 3 L 13.210938 44.890625 L 44.496094 44.890625 L 44.496094 11.808594 L 36.046875 3 "/>
<path style=" stroke:none;fill-rule:nonzero;fill:rgb(47.843137%,48.235294%,48.627451%);fill-opacity:1;" d="M 12.984375 5.25 L 3.398438 5.25 L 3.398438 15.492188 L 33.546875 15.492188 L 33.546875 5.25 L 12.984375 5.25 "/>
<path style=" stroke:none;fill-rule:nonzero;fill:rgb(86.666667%,12.54902%,14.509804%);fill-opacity:1;" d="M 33.707031 15.316406 L 3.59375 15.316406 L 3.59375 5.070312 L 33.707031 5.070312 L 33.707031 15.316406 "/>
<path style=" stroke:none;fill-rule:nonzero;fill:rgb(27.45098%,27.45098%,28.235294%);fill-opacity:1;" d="M 13.578125 6.800781 L 11.617188 6.800781 L 11.617188 14 L 13.160156 14 L 13.160156 11.574219 L 13.5 11.59375 C 13.832031 11.585938 14.160156 11.527344 14.46875 11.417969 C 14.742188 11.324219 14.996094 11.175781 15.210938 10.980469 C 15.429688 10.796875 15.601562 10.5625 15.710938 10.300781 C 15.863281 9.863281 15.917969 9.398438 15.871094 8.9375 C 15.859375 8.609375 15.804688 8.28125 15.699219 7.972656 C 15.507812 7.515625 15.132812 7.160156 14.667969 6.996094 C 14.46875 6.925781 14.265625 6.871094 14.054688 6.839844 C 13.898438 6.816406 13.738281 6.800781 13.578125 6.800781 M 13.292969 10.242188 L 13.160156 10.242188 L 13.160156 8.023438 L 13.449219 8.023438 C 13.707031 8.003906 13.960938 8.101562 14.136719 8.292969 C 14.316406 8.535156 14.414062 8.828125 14.410156 9.128906 C 14.410156 9.5 14.410156 9.835938 14.078125 10.070312 C 13.839844 10.203125 13.566406 10.261719 13.292969 10.242188 "/>
<path style=" stroke:none;fill-rule:nonzero;fill:rgb(27.45098%,27.45098%,28.235294%);fill-opacity:1;" d="M 18.800781 6.78125 C 18.632812 6.78125 18.472656 6.792969 18.355469 6.796875 L 18 6.808594 L 16.828125 6.808594 L 16.828125 14.007812 L 18.207031 14.007812 C 18.734375 14.023438 19.257812 13.933594 19.75 13.746094 C 20.144531 13.585938 20.496094 13.335938 20.769531 13.007812 C 21.035156 12.679688 21.226562 12.296875 21.328125 11.882812 C 21.445312 11.417969 21.503906 10.941406 21.5 10.460938 C 21.527344 9.894531 21.484375 9.324219 21.367188 8.769531 C 21.257812 8.363281 21.054688 7.984375 20.769531 7.671875 C 20.546875 7.417969 20.273438 7.214844 19.964844 7.070312 C 19.703125 6.949219 19.425781 6.859375 19.144531 6.804688 C 19.03125 6.785156 18.914062 6.777344 18.800781 6.777344 M 18.527344 12.683594 L 18.378906 12.683594 L 18.378906 8.089844 L 18.398438 8.089844 C 18.707031 8.050781 19.019531 8.109375 19.296875 8.25 C 19.5 8.410156 19.667969 8.617188 19.785156 8.847656 C 19.910156 9.09375 19.980469 9.363281 19.996094 9.636719 C 20.011719 9.96875 19.996094 10.238281 19.996094 10.460938 C 20.003906 10.71875 19.984375 10.976562 19.945312 11.230469 C 19.902344 11.492188 19.816406 11.746094 19.695312 11.980469 C 19.554688 12.199219 19.371094 12.382812 19.148438 12.519531 C 18.964844 12.640625 18.746094 12.695312 18.523438 12.679688 "/>
<path style=" stroke:none;fill-rule:nonzero;fill:rgb(27.45098%,27.45098%,28.235294%);fill-opacity:1;" d="M 26.144531 6.808594 L 22.5 6.808594 L 22.5 14.007812 L 24.042969 14.007812 L 24.042969 11.152344 L 25.992188 11.152344 L 25.992188 9.8125 L 24.042969 9.8125 L 24.042969 8.144531 L 26.140625 8.144531 L 26.140625 6.808594 "/>
<path style=" stroke:none;fill-rule:nonzero;fill:rgb(86.666667%,12.54902%,14.509804%);fill-opacity:1;" d="M 32.671875 30.382812 C 32.671875 30.382812 37.453125 29.515625 37.453125 31.148438 C 37.453125 32.78125 34.492188 32.117188 32.671875 30.382812 Z M 29.136719 30.507812 C 28.375 30.675781 27.636719 30.921875 26.925781 31.242188 L 27.527344 29.890625 C 28.125 28.539062 28.75 26.699219 28.75 26.699219 C 29.464844 27.90625 30.296875 29.035156 31.234375 30.078125 C 30.527344 30.183594 29.828125 30.328125 29.136719 30.511719 Z M 27.242188 20.757812 C 27.242188 19.332031 27.703125 18.945312 28.0625 18.945312 C 28.421875 18.945312 28.824219 19.117188 28.835938 20.351562 C 28.71875 21.597656 28.460938 22.820312 28.0625 24.003906 C 27.515625 23.011719 27.234375 21.894531 27.242188 20.761719 Z M 20.269531 36.53125 C 18.800781 35.652344 23.347656 32.953125 24.167969 32.863281 C 24.164062 32.867188 21.804688 37.449219 20.269531 36.53125 Z M 38.851562 31.34375 C 38.835938 31.191406 38.699219 29.53125 35.746094 29.601562 C 34.511719 29.582031 33.28125 29.667969 32.066406 29.863281 C 30.886719 28.675781 29.871094 27.335938 29.046875 25.878906 C 29.566406 24.378906 29.882812 22.8125 29.980469 21.230469 C 29.9375 19.429688 29.507812 18.398438 28.128906 18.414062 C 26.75 18.425781 26.546875 19.636719 26.726562 21.433594 C 26.90625 22.640625 27.242188 23.820312 27.726562 24.9375 C 27.726562 24.9375 27.089844 26.921875 26.246094 28.898438 C 25.402344 30.871094 24.828125 31.90625 24.828125 31.90625 C 23.359375 32.382812 21.980469 33.09375 20.738281 34.007812 C 19.503906 35.15625 19 36.039062 19.652344 36.925781 C 20.210938 37.6875 22.175781 37.859375 23.929688 35.558594 C 24.863281 34.371094 25.714844 33.121094 26.480469 31.820312 C 26.480469 31.820312 29.15625 31.085938 29.988281 30.886719 C 30.820312 30.6875 31.828125 30.527344 31.828125 30.527344 C 31.828125 30.527344 34.273438 32.984375 36.628906 32.898438 C 38.984375 32.8125 38.871094 31.488281 38.855469 31.34375 "/>
<path style=" stroke:none;fill-rule:nonzero;fill:rgb(56.470588%,56.470588%,56.470588%);fill-opacity:1;" d="M 35.929688 3.117188 L 35.929688 11.925781 L 44.378906 11.925781 Z M 35.929688 3.117188 "/>
<path style=" stroke:none;fill-rule:nonzero;fill:rgb(95.686275%,95.686275%,95.686275%);fill-opacity:1;" d="M 36.046875 3 L 36.046875 11.808594 L 44.496094 11.808594 Z M 36.046875 3 "/>
<path style=" stroke:none;fill-rule:nonzero;fill:rgb(100%,100%,100%);fill-opacity:1;" d="M 13.460938 6.6875 L 11.5 6.6875 L 11.5 13.886719 L 13.050781 13.886719 L 13.050781 11.457031 L 13.390625 11.476562 C 13.722656 11.472656 14.050781 11.414062 14.363281 11.300781 C 14.636719 11.207031 14.886719 11.058594 15.101562 10.867188 C 15.320312 10.679688 15.488281 10.449219 15.601562 10.183594 C 15.75 9.746094 15.804688 9.28125 15.757812 8.824219 C 15.75 8.496094 15.691406 8.167969 15.585938 7.855469 C 15.394531 7.402344 15.019531 7.046875 14.554688 6.882812 C 14.355469 6.808594 14.148438 6.757812 13.9375 6.722656 C 13.78125 6.699219 13.621094 6.6875 13.460938 6.6875 M 13.175781 10.125 L 13.042969 10.125 L 13.042969 7.90625 L 13.335938 7.90625 C 13.59375 7.886719 13.847656 7.988281 14.023438 8.179688 C 14.203125 8.417969 14.300781 8.714844 14.296875 9.015625 C 14.296875 9.382812 14.296875 9.71875 13.964844 9.953125 C 13.726562 10.085938 13.453125 10.144531 13.179688 10.125 "/>
<path style=" stroke:none;fill-rule:nonzero;fill:rgb(100%,100%,100%);fill-opacity:1;" d="M 18.683594 6.664062 C 18.515625 6.664062 18.355469 6.679688 18.242188 6.683594 L 17.890625 6.691406 L 16.71875 6.691406 L 16.71875 13.890625 L 18.097656 13.890625 C 18.621094 13.90625 19.144531 13.816406 19.636719 13.628906 C 20.035156 13.472656 20.382812 13.21875 20.65625 12.890625 C 20.925781 12.5625 21.113281 12.179688 21.21875 11.769531 C 21.335938 11.304688 21.394531 10.824219 21.386719 10.34375 C 21.417969 9.777344 21.375 9.210938 21.257812 8.65625 C 21.148438 8.246094 20.941406 7.867188 20.65625 7.554688 C 20.433594 7.300781 20.160156 7.097656 19.855469 6.957031 C 19.59375 6.832031 19.316406 6.746094 19.03125 6.6875 C 18.917969 6.667969 18.804688 6.660156 18.691406 6.664062 M 18.417969 12.570312 L 18.265625 12.570312 L 18.265625 7.972656 L 18.285156 7.972656 C 18.59375 7.9375 18.910156 7.992188 19.1875 8.132812 C 19.390625 8.296875 19.554688 8.5 19.671875 8.734375 C 19.796875 8.976562 19.871094 9.246094 19.886719 9.523438 C 19.898438 9.851562 19.886719 10.121094 19.886719 10.34375 C 19.890625 10.601562 19.875 10.859375 19.835938 11.113281 C 19.789062 11.375 19.703125 11.628906 19.582031 11.863281 C 19.445312 12.085938 19.257812 12.269531 19.039062 12.40625 C 18.851562 12.523438 18.632812 12.582031 18.414062 12.5625 "/>
<path style=" stroke:none;fill-rule:nonzero;fill:rgb(100%,100%,100%);fill-opacity:1;" d="M 26.03125 6.691406 L 22.382812 6.691406 L 22.382812 13.890625 L 23.925781 13.890625 L 23.925781 11.035156 L 25.875 11.035156 L 25.875 9.699219 L 23.925781 9.699219 L 23.925781 8.03125 L 26.027344 8.03125 L 26.027344 6.691406 "/>
</g>
</svg>
