<svg width="114" height="40" viewBox="0 0 114 40" fill="none" xmlns="http://www.w3.org/2000/svg">
<path fill-rule="evenodd" clip-rule="evenodd" d="M85.5 0.77002C83.7221 1.14252 83.0696 1.97252 83.1327 3.16752C83.2225 4.84752 85.0149 8.05002 85.8711 9.47752C87.3677 11.9725 89.1383 14.225 91.1079 16.2975C92.7039 17.9225 93.7008 18.275 95.4059 15.875C96.8588 13.9 98.205 11.9325 99.3571 9.48252C99.864 8.40502 100.33 7.23002 100.747 5.91252C101.196 4.37502 101.033 3.01252 99.573 2.01002C100.987 2.71502 101.596 4.02252 101.686 5.46002C101.773 6.85002 101.368 8.36252 101.06 9.47752C100.293 12.2525 99.311 15.05 98.0691 17.565C97.1305 19.465 95.9347 21.75 94.7413 23.4425C92.0999 27.1875 89.5652 25.9775 86.594 23.4425C84.7117 21.835 82.8999 19.8 81.3475 17.58C79.7782 15.3375 78.0439 12.0175 77.0228 9.46752C75.6208 5.97502 76.7099 4.18502 78.4417 3.05002C80.3434 1.80502 83.1909 1.09752 85.4976 0.77002H85.5Z" fill="url(#paint0_linear_533_2872)"/>
<path fill-rule="evenodd" clip-rule="evenodd" d="M85.4394 8.73998C88.1899 8.31748 95.338 7.85748 97.846 9.19748C98.6852 9.64498 98.7095 10.2525 98.6246 10.94C98.8768 10.4725 99.1218 9.98998 99.3595 9.48748C99.8664 8.40998 100.332 7.23498 100.749 5.91748C101.198 4.37998 101.036 3.01748 99.5754 2.01498L99.5681 2.00998C99.0248 1.71748 98.399 1.50498 97.8387 1.33498C96.1845 0.842476 94.3508 0.639977 92.5098 0.502477C91.7482 0.444977 90.9526 0.449977 90.1449 0.454977C88.6896 0.459977 87.0887 0.549976 85.4976 0.772476C83.7197 1.14498 83.0696 1.97498 83.1327 3.16998C83.2079 4.59998 84.5225 7.13748 85.4369 8.73998H85.4394Z" fill="url(#paint1_linear_533_2872)"/>
<path fill-rule="evenodd" clip-rule="evenodd" d="M78.2526 39.4748C79.6885 39.2973 80.9037 38.5423 81.3136 36.3023C81.5755 34.8723 81.5392 32.5648 81.1487 31.2173C80.9692 30.5898 80.6951 30.0623 80.2949 29.7148C79.6206 29.1348 78.8735 29.0323 78.2162 29.0048C77.1053 28.9623 76.5086 29.1598 75.7033 29.8273C75.5481 29.9573 75.4123 30.0148 75.4123 29.7873L75.388 25.0123L72.8218 25.0548L72.8339 38.7423C73.9327 39.5048 76.9598 39.6323 78.2526 39.4698V39.4748ZM9.42567 39.2148C9.96414 39.2148 9.85984 39.2648 10.1873 38.7998C12.4188 35.6448 14.529 28.9223 14.4999 25.1698C13.4618 25.1248 12.4115 25.2998 11.3588 25.5598C10.3498 31.7123 9.46691 33.3373 7.85635 36.4773C6.2458 33.3373 5.36048 31.7123 4.35146 25.5598C3.29878 25.2998 2.24852 25.1248 1.21282 25.1698C1.18372 28.9223 3.29393 35.6473 5.52542 38.7998C5.85286 39.2648 5.74857 39.2148 6.28703 39.2148H9.42567ZM83.1934 29.5148L83.4432 31.9173C84.4595 31.8173 85.2915 31.5423 86.3538 31.4623C87.9595 31.4023 88.9831 31.3623 88.9322 32.5623C87.7315 32.5573 86.5236 32.5623 85.2769 32.5723C83.7634 32.5848 82.507 33.3273 82.6743 36.4948C82.8756 40.2998 87.2586 40.0198 89.2596 38.4948V39.3498H91.5857C91.5251 35.4648 91.7967 31.3848 91.1176 30.2823C89.8199 28.1748 85.5728 28.9498 83.1934 29.5148ZM28.3909 38.8923C28.306 38.1073 28.2187 37.3248 28.1314 36.5398C27.0787 36.7423 25.2765 37.0148 24.2117 36.9798C22.9868 36.9398 22.5308 36.3323 22.5357 34.5323C22.9238 34.9848 23.4695 35.3073 24.1559 35.3148C25.7544 35.3323 27.2509 35.3598 28.8275 35.2998C28.8978 32.3023 29.1501 29.6873 26.2443 29.0473C25.0631 28.7873 23.4986 28.7923 22.378 29.1348C21.1483 29.5098 20.5443 30.1123 20.1902 31.3698C19.5304 33.7223 19.7172 37.2048 21.1822 38.5498C22.8655 40.0923 26.2613 39.5423 28.3861 38.8923H28.3909ZM23.7145 31.3723H24.9976C25.6379 31.3723 26.1618 31.9123 26.1618 32.5723V33.1048H22.5478V32.5723C22.5478 31.9123 23.0717 31.3723 23.7121 31.3723H23.7145ZM105.773 39.3273L105.853 34.9248C105.858 34.6548 106.09 35.0173 106.153 35.1248C107 36.5873 107.781 37.6898 109.037 38.9898C109.392 39.3548 109.464 39.3298 110.095 39.3298H112.787C110.823 37.6548 109.731 36.3173 108.683 34.2848C108.472 33.8173 108.484 33.8698 108.785 33.4323C109.176 32.9698 109.666 32.3423 110.209 31.7073L112.504 28.9248C112.516 28.9023 112.525 28.8823 112.535 28.8598H110.097C109.649 28.8598 109.666 28.7898 109.35 29.1398C108.421 30.1723 107.357 31.3823 106.498 32.3598C106.391 32.4823 106.265 32.5698 106.158 32.6498C105.804 32.9123 105.87 32.8423 105.867 32.4673L105.845 24.9873L103.248 25.0073L103.214 39.3323H105.775L105.773 39.3273ZM45.4691 38.9823L45.2411 36.6473C44.0695 36.7473 42.8325 37.0798 41.5834 36.9348C40.3391 36.7923 40.1838 36.1123 40.1741 35.0698C40.1669 34.4373 40.1499 33.7273 40.1838 33.1048C40.2324 32.2498 40.4749 31.6998 41.5834 31.5723C42.8325 31.4298 44.0695 31.7598 45.2411 31.8598L45.4691 29.5248C41.0013 28.4373 38.2167 28.9798 37.5934 32.5498C37.4624 33.2948 37.5206 35.7573 37.7001 36.4573C38.4908 39.5773 41.2195 40.0198 45.4691 38.9848V38.9823ZM31.4495 29.0073H29.8147C29.8098 29.8323 29.805 30.6573 29.8001 31.4823C30.3629 31.4873 30.8844 31.4898 31.4471 31.4948C31.4495 32.3323 31.4471 33.2198 31.4422 34.0598C31.4398 34.9448 31.4325 35.7723 31.4374 36.4923C31.4447 37.5398 31.6363 38.4398 32.2135 38.9123C32.4561 39.1098 32.8029 39.2148 33.2298 39.2648C34.2389 39.3823 35.5074 39.3248 36.3709 39.0373C36.3442 38.3298 36.3151 37.6223 36.2884 36.9123C35.2843 37.0148 34.0545 37.2373 34.0545 36.7073C34.0545 34.9023 34.0545 33.3048 34.0569 31.4998C34.8622 31.4948 35.6238 31.4923 36.4291 31.4898C36.4291 30.6673 36.4243 29.8448 36.4243 29.0223C35.636 29.0173 34.8477 29.0148 34.0594 29.0098C34.0594 28.1898 34.0594 27.3698 34.0594 26.5498C33.1886 26.5498 32.3178 26.5523 31.4471 26.5548C31.4471 27.3723 31.4471 28.1898 31.4495 29.0073ZM15.5016 39.3273L18.0412 39.3773L18.1333 29.0473L15.4919 29.0598L15.5016 39.3248V39.3273ZM50.1091 28.8698H52.3867C54.167 28.8698 55.6224 30.3698 55.6224 32.2048V36.1498C55.6224 37.9848 54.167 39.4848 52.3867 39.4848H50.1091C48.3288 39.4848 46.8735 37.9848 46.8735 36.1498V32.2048C46.8735 30.3698 48.3288 28.8698 50.1091 28.8698ZM50.6064 31.3723C49.966 31.3723 49.4421 31.9123 49.4421 32.5723V35.7798C49.4421 36.4398 49.966 36.9798 50.6064 36.9798H51.8895C52.5298 36.9798 53.0537 36.4398 53.0537 35.7798V32.5723C53.0537 31.9123 52.5298 31.3723 51.8895 31.3723H50.6064ZM59.8622 39.3273C59.8864 36.6973 59.9083 34.0648 59.9325 31.4323C60.568 31.4323 61.2035 31.4298 61.8414 31.4298C62.3484 31.4348 62.848 31.7673 62.848 32.3273V32.6898L62.8553 39.3248H65.4191L65.4918 31.4223C66.1904 31.4223 66.8865 31.4223 67.5851 31.4223C68.2012 31.4223 68.6038 31.7798 68.6038 32.3898L68.6135 39.3298H71.153L71.2404 31.8673C71.2598 30.2798 70.4108 28.9698 68.6669 28.9848C68.1138 28.9898 67.5584 28.9948 67.0054 29.0023C66.171 29.0098 65.7271 29.1673 65.2129 29.7173C64.8272 30.1298 65.0164 30.1323 64.6647 29.7473C64.1481 29.1798 63.532 28.9873 62.7461 28.9873H61.5746C60.8639 29.0173 60.4079 29.2498 59.8743 29.8048C59.4498 30.2473 59.5008 30.3948 59.5008 29.6998V29.0548C58.7804 29.0573 58.0382 29.0623 57.3178 29.0648C57.3227 32.4873 57.3251 35.9073 57.3275 39.3298H59.867L59.8622 39.3273ZM95.8158 39.3273C95.8401 36.6973 95.8644 34.0648 95.8886 31.4323C96.5338 31.4323 97.179 31.4298 97.8242 31.4298C98.3942 31.4373 98.8453 31.7873 98.8453 32.3848C98.8478 34.6973 98.8502 37.0123 98.8526 39.3273H101.453C101.475 37.0248 101.494 34.7223 101.516 32.4223C101.533 30.5973 100.837 28.9848 98.7386 28.9848H97.5501C96.8515 29.0123 96.398 29.2323 95.8789 29.7498C95.4326 30.1948 95.4447 30.4373 95.4447 29.7298V29.0448H93.2254C93.2302 32.4673 93.2375 35.9073 93.2399 39.3298H95.8183L95.8158 39.3273ZM86.155 34.8773H88.9855V36.4023C88.9855 37.0348 87.1979 37.0623 86.0628 37.0348C85.2308 37.0148 85.3279 37.0398 85.2915 36.2748C85.2793 35.9923 85.2915 35.7073 85.2915 35.4223C85.2915 34.8373 85.4079 34.8773 86.1574 34.8773H86.155ZM78.7862 33.0348V35.8673C78.7862 36.5273 78.2623 37.0673 77.6219 37.0673H76.3121C75.3977 37.0673 75.3904 37.0798 75.3904 35.7373V32.6948C75.3904 31.3523 75.3977 31.3648 76.3121 31.3648H77.6219C78.2623 31.3648 78.7862 31.9048 78.7862 32.5648V33.0348Z" fill="#004522"/>
<defs>
<linearGradient id="paint0_linear_533_2872" x1="98.6149" y1="16.7325" x2="78.0297" y2="2.74756" gradientUnits="userSpaceOnUse">
<stop stop-color="#006840"/>
<stop offset="0.4" stop-color="#007A48"/>
<stop offset="1" stop-color="#86C440"/>
</linearGradient>
<linearGradient id="paint1_linear_533_2872" x1="85.9536" y1="0.644977" x2="98.1346" y2="8.92127" gradientUnits="userSpaceOnUse">
<stop stop-color="#006840"/>
<stop offset="0.3" stop-color="#007A48"/>
<stop offset="1" stop-color="#86C440"/>
</linearGradient>
</defs>
</svg>
